<svg data-v-0dd9719b="" version="1.0" xmlns="http://www.w3.org/2000/svg" xmlns:xlink="http://www.w3.org/1999/xlink" width="100%" height="100%" viewBox="0 0 340.000000 250.000000" preserveAspectRatio="xMidYMid meet" color-interpolation-filters="sRGB" style="margin: auto;"> <rect data-v-0dd9719b="" x="0" y="0" width="100%" height="100%" fill="#fff" fill-opacity="1" class="background"></rect> <rect data-v-0dd9719b="" x="0" y="0" width="100%" height="100%" fill="url(#watermark)" fill-opacity="1" class="watermarklayer"></rect> <g data-v-0dd9719b="" fill="#fbc600" class="icon-text-wrapper icon-svg-group iconsvg" transform="translate(48.68000030517578,99.25975227355957)"><g class="iconsvg-imagesvg" transform="translate(0,0)"><g><rect fill="#fbc600" fill-opacity="0" stroke-width="2" x="0" y="0" width="60" height="51.4804931831247" class="image-rect"></rect> <svg x="0" y="0" width="60" height="51.4804931831247" filtersec="colorsb7217440774" class="image-svg-svg primary" style="overflow: visible;"><svg version="1.1" id="cube" xmlns="http://www.w3.org/2000/svg" xmlns:xlink="http://www.w3.org/1999/xlink" x="0px" y="0px" viewBox="6.44000244140625 6.800000190734863 419.9676513671875 360.33697509765625" enable-background="new 0 0 434.83 374" xml:space="preserve">
<g>
	<path fill="#009FE8" d="M166.44,40.58c39.14,11.02,77.26,86.46,63.38,165.2c-13.89,78.74-80.6,144.58-157.26,161.15
		c11.23,2.62,188.1-17.98,229.96-161.15C328.52,116.85,257.68,40.58,166.44,40.58z"></path>
	<path fill="#FBC600" d="M69.61,88.05c33.45,7.36,69.16,68.97,61.3,135.86c-7.88,66.91-60.8,125.51-124.47,143.15
		c9.57,1.67,157.34-24.22,185.59-146.67C209.59,144.35,146.33,83.63,69.61,88.05z"></path>
	<path fill="#8DC21F" d="M275.71,6.8c43.19,14.83,81.13,101.81,60.57,189.17c-20.57,87.4-99.53,156.95-186.5,170.65
		c12.43,3.66,211.98-8.2,267.96-166.02C452.54,102.57,377.98,12.58,275.71,6.8z"></path>
</g>
</svg></svg> <!----></g></g> <g transform="translate(67,5.810247421264648)"><g data-gra="path-name" fill-rule="" class="tp-name iconsvg-namesvg"><g transform="scale(1)"><g><path d="M42.61-2.43Q41.49-0.85 40.84 0.77 40.18 2.38 40 4.37L40 4.37Q37.08 3.33 21.82-0.63L21.82-0.63Q18.5 1.67 13.66 2.79 8.82 3.92 3.78 4.27L3.78 4.27Q3.65 0.67 1.98-3.06L1.98-3.06Q9.04-3.19 12.91-4.32L12.91-4.32 5.89-4.32 5.89-15.03 39.02-15.03 39.02-4.54 33.93-4.54 42.61-2.43ZM13.99-4.68Q17.59-5.98 18.5-8.5L18.5-8.5 26.59-8.5Q26.5-7.25 26.28-6.43L26.28-6.43 30.91-5.26 30.91-9.13 13.99-9.13 13.99-4.68ZM42.84-15.88L2.29-15.88 2.29-21.6 18.45-21.6 18.45-22.54 4.72-22.54 4.72-33.21 18.45-33.21 18.45-35.23 26.55-35.23 26.55-33.21 40.14-33.21 40.14-22.54 26.55-22.54 26.55-21.6 42.84-21.6 42.84-15.88ZM18.45-28.62L12.82-28.62 12.82-27.18 18.45-27.18 18.45-28.62ZM26.55-27.18L32.04-27.18 32.04-28.62 26.55-28.62 26.55-27.18ZM86.76 3.96L78.97 3.96 78.97-11.88Q77.22-11.25 76.63-10.75L76.63-10.75 74.88-16.06 74.88 2.7 67.05 2.7 67.05-11.92Q64.84-11.16 64.31-10.66L64.31-10.66 62.77-15.84Q62.37-9.18 60.75-4.5 59.13 0.18 55.26 4.54L55.26 4.54Q53.77 3.01 51.68 2 49.59 0.99 47.3 0.72L47.3 0.72Q50.17-1.57 51.82-4.59 53.46-7.6 54.23-12.35 54.99-17.1 54.99-24.52L54.99-24.52 54.99-35.05 63-35.05 63-27.04 65.84-27.95 67.05-23.98 67.05-33.8 74.88-33.8 74.88-27.04 77.63-28.04 78.97-24.07 78.97-35.05 86.76-35.05 86.76 3.96ZM52.7-10.62Q51.98-11.16 50.47-11.5 48.96-11.83 47.66-11.83L47.66-11.83Q46.84-11.83 46.58-11.74L46.58-11.74Q47.16-13.59 47.92-19.13 48.69-24.66 48.91-28.17L48.91-28.17 54.9-27.72Q54.77-24.21 54-18.45 53.23-12.69 52.7-10.62L52.7-10.62ZM127.48-5Q130.28-3.38 133.6-2.65L133.6-2.65Q131.4 0.94 130.77 4.5L130.77 4.5Q122.98 2.56 118.17-2.61L118.17-2.61 118.58 2.52 103.64 4.27Q103.09 0.99 101.47-2.43L101.47-2.43Q102.96-3.33 103.55-4.52 104.13-5.71 104-8.32L104-8.32 104-12.2 102.51-12.2Q102.15-6.84 101.3-3.58 100.44-0.32 98.55 4.41L98.55 4.41Q94.72 1.71 90.86 0.58L90.86 0.58Q92.39-2.38 93.19-5.17 94-7.96 94.36-11.9 94.72-15.84 94.72-22.18L94.72-22.18 94.72-34.47 132.25-34.47 132.25-27.58 102.83-27.58 102.83-23.8Q102.83-20.61 102.78-19.17L102.78-19.17 132.8-19.17 132.8-12.2 128.61-12.2 131.89-8.37Q131.13-7.69 129.06-6.17L129.06-6.17Q128.3-5.63 127.48-5L127.48-5ZM116.33-4.77Q113.85-8.14 112.28-12.2L112.28-12.2 111.73-12.2 111.73-4.05 116.33-4.77ZM122-9.63Q123.57-10.66 125.64-12.2L125.64-12.2 120.15-12.2Q120.91-10.93 122-9.63L122-9.63ZM103.86-26.32L130.28-26.32 130.28-20.38 103.86-20.38 103.86-26.32ZM174.06-3.6Q174.06-0.72 173.77 0.83 173.47 2.38 172.8 3.08 172.13 3.78 170.82 4.09L170.82 4.09Q169.78 4.37 164.66 4.37L164.66 4.37 160.29 4.32Q160.16 1.48 158.67-1.26L158.67-1.26 164.12-1.26Q165.15-1.26 165.51-1.4 165.87-1.53 165.96-2.11L165.96-2.11 149.18-2.11 149.18 4.23 141.07 4.23 141.07-16.38 174.06-16.38 174.06-3.6ZM177.62-17.19L137.34-17.19 137.34-22.59 153.54-22.59 153.54-23.58 140.13-23.58 140.13-27.09 153.54-27.09 153.54-28.08 138.24-28.08 138.24-33.3 153.54-33.3 153.54-35.32 161.64-35.32 161.64-33.3 176.89-33.3 176.89-28.08 161.64-28.08 161.64-27.09 175.09-27.09 175.09-23.58 161.64-23.58 161.64-22.59 177.62-22.59 177.62-17.19ZM165.96-11.79L149.18-11.79 149.18-10.8 165.96-10.8 165.96-11.79ZM165.96-6.97L149.18-6.97 149.18-5.98 165.96-5.98 165.96-6.97Z" transform="translate(-1.9800000190734863, 35.31999969482422)"></path></g> <!----> <!----> <!----> <!----> <!----> <!----> <!----></g></g> <!----></g></g><defs v-gra="od"></defs></svg>